<?xml version="1.0" encoding="UTF-8"?>
<svg version="1.1" viewBox="0 0 2048 2048" width="1280" height="1280" xmlns="http://www.w3.org/2000/svg">
<path transform="translate(1029,340)" d="m0 0h49l23 3 25 6 21 7 24 11 22 13 18 13 13 11 12 11 20 20 9 11 12 14 13 18 12 17 28 42 8 10 11 10 15 8 13 4 21 6 16 8 10 8 8 10 5 11 3 12 1 16-2 21-4 20-7 21-8 16-8 14-10 13-12 14-14 14-11 9-18 14-11 8-5 5-4 5-3 6-1 13 5 25 3 29 3 31 4 19 8 20 12 25 16 27 9 15v2l-9 2-26 4h-3l-2 13-6 28-5 16-7 14-8 8-12 6-10 2h-12l-5-1-1 13-5 19-7 14-10 11-13 8-14 5-12 2h-10l-16-4-12-7-11-9-9-9-7-8-5-5-2 4-7 8-12 12-13 8-10 4-4 1h-20l-12-4-12-7-11-9-8-8-4 5-8 12-8 10-12 12-10 7-14 7-12 3-7 1h-11l-18-3-13-5-13-9-8-9-7-12-6-16-6-26-2-8-13 5-14 3h-15l-16-4-16-8-12-11-7-10-4-13-1-6v-40l-16-4-14-7-9-9-4-8-1-5v-7l4-11 9-10 10-13 8-16 5-14 5-22 7-49 3-15-3-5-9-6-22-8-25-12-18-11-16-12-13-11-16-16-9-11-13-18-13-23-10-22-9-26-2-10v-19l4-13 4-8 9-11 10-8 19-10 22-8 29-6 15-6 11-7 13-11 9-11 14-21 13-20 8-12 11-16 13-18 13-16 9-11 23-23 14-11 16-11 17-10 21-10 25-9 22-6 25-5 22-3z"/>
<path transform="translate(1193,669)" d="m0 0h12l15 6 11 7 13 11 9 10 12 17 14 27 10 26 8 27 6 26 5 31 4 38 3 23 5 24 5 19 9 25 5 11-2 4-7 3h-10l-10-5-6-6 11 33 5 24v20l-3 10-6 8-10 5h-16l-10-4-12-11-8-14-6-17-1-7-16 1-3 1 8 10 8 16 5 14 4 20v24l-4 16-5 10-8 8-8 4-8 2h-14l-10-3-10-6-7-7-9-14-9-19-7-18-3-12-2-24 1-31 1-5h15l2-4 10-16 9-17 7-19 4-16 3-20v-27l-4-26-5-17-1-3h28l15-3 16-8 8-7 6-10 3-9 1-5v-17l-3-15-7-19-7-10-6-7-13-9-12-5-5-1h-19l-7 3-7 6-5 10-4 17v35l1 9-10-1-28-8h-10l-8 4-7 9-5 12-4 13-9 17-8 10-8 9-13 10-15 8-17 6-22 4h-34l-5-1v19l12 2 8 3 33 22 71 48 12 8 16 11 4 55v30l-3 15-4 11-6 10-8 8-9 4-4 1h-16l-12-5-9-9-6-12-4-15-2-19v-16l2-22-13 3h-4l-1 15-4 33-4 18-6 16-6 12-8 10-5 6-12 9-15 7-5 1h-15l-11-3-11-6-12-12-8-14-4-13-2-12v-17l3-19 4-15 2-5-20 1-6 11-11 11-12 7-13 4h-20l-11-4-8-6-5-7-4-16v-12l4-27 10-39 1-7-6 3-10 10-5 6-13 7-10 1-5-4-1-3v-11l5-9 10-17 9-20 7-21 6-27 2-16 2-23 11-5 95-38 16-6 7 15 6 10 9 10 7 6 14 7 12 3h19l12-3 12-5 11-8 10-10 8-14 4-12 1-8v-12l-3-17-6-16-5-9v-3l27-14 23-13 32-17 46-26 11-7z" fill="#69B144"/>
<path transform="translate(1029,369)" d="m0 0h43l23 3 25 6 22 8 19 9 20 12 16 12 13 11 12 11 11 11 7 8 14 17 13 18 13 19 21 31 13 19 11 12 10 8 16 8 32 8 14 7 9 9 5 11 1 5v17l-4 19-7 21-8 16-9 15-13 16-12 13-8 7-13 11-17 12-4-2-4-7-1-6 4-10 13-15 9-10 9-11 11-13 12-16 14-21 6-12 2-11-2-8-4-6-10-6-30-10-19-10-16-12-13-12-7-8-12-15-16-23-10-14-14-19-13-16-11-13-11-12-18-18-14-11-13-9-16-9-25-10-23-6-19-3-12-1h-30l-26 3-23 5-23 7-21 9-23 12-18 12-10 8-14 12-8 8-9 11-10 13-18 27-13 21-10 18-9 13-9 11-13 13-15 11-16 9-19 8-21 6-24 8-11 7-6 9-1 11 3 13 12 25 8 12 8 10 15 15 17 13 15 10 24 15 16 8 8 6-7 11-5 8-5-1-26-11-16-10-17-13-13-11-11-10-7-8-9-10-13-18-12-21-8-18-5-17v-16l4-10 7-8 9-7 19-8 11-2 20-4 19-7 14-8 12-9 12-11 11-12 11-15 11-17 18-30 11-16 13-17 12-14 22-22 14-11 14-10 15-9 25-12 27-9 31-7z" fill="#fff"/>
<path transform="translate(1095,1287)" d="m0 0h78l-3 9-7 18-1 10v30l10-11 9-11 9-10 9-11 5-6 5-17 1-1h93l-5 5-16 13-11 9-70 70v8l8 10 13 16 11 14 11 13 11 14 9 11 13 16 11 14 11 13 2 4h-84l-5-22-6-9-16-21-14-19-16-21v21l1 33 3 14 7 23v1h-77l4-16 4-13v-177l-7-21z" fill="#6AB245"/>
<path transform="translate(770,1287)" d="m0 0h17l18 37 11 23 13 27 11 23 15 31 11 23 13 27 17 25 7 10v2h-82l-1-2-2-28-2-6-12-25-2-4h-49l-12 22-5 9-2 18-2 16h-85l6-8 12-13 10-13 23-47 11-23 26-52 11-23 14-28zm5 99-10 20v1h25l-5-9-8-12z" fill="#6AB245"/>
<path transform="translate(1e3 1287)" d="m0 0h28l20 3 19 5 8 3 1 1v54l-4-1-11-6-10-4-13-3-9-1h-16l-20 3-12 3-12 6-10 9-7 10-5 14-2 13v12l3 21 4 11 9 11 11 8 12 6 12 3 7 1h19l16-4 14-7 14-10 10-9 4-4v63l-10 6-16 7-16 5-17 3h-30l-20-4-16-6-15-8-10-8-9-8-11-14-8-14-6-14-5-18-2-17v-16l2-16 5-16 8-16 9-12 9-10 10-9 14-9 16-8 20-6z" fill="#6AB245"/>
<path transform="translate(1453,1283)" d="m0 0h20l18 4 14 6 1 1v66l-8-6-10-8-16-8-9-2h-13l-8 3-4 6v12l4 8 7 7 13 8 24 13 15 10 8 8 7 14 2 8 1 9v9l-2 16-4 13-6 11-9 10-8 7-14 7-14 4-7 1h-29l-24-4-10-3-1-1v-80l6 5 9 11 14 15 6 5 5 2h8l12-3 6-4 3-6-1-7-4-6-9-8-23-15-14-9-11-10-9-14-5-12-2-9v-21l3-12 7-14 9-11 10-9 15-9 16-6z" fill="#6AB245"/>
<path transform="translate(563,1287)" d="m0 0h94l-2 23-5 139-1 34-3 20-6 18-6 11-8 10-8 7-16 8-12 3-17 1-18-2-21-5-4-2 3-2 17-9 12-9 8-7 10-13 7-14 3-11 1-7 1-29v-117l-39 3h-5l4-16 10-33z" fill="#6AB245"/>
<path transform="translate(1133,822)" d="m0 0h7l7 4 8 8 10 15 8 16 7 19 5 22 2 19v15l-2 18-5 20-8 19-6 11-4-4-8-11-14-14-13-9-14-8-25-10-23-7-1 1 57 42 7 5-4 1-21-6-18-8-14-8-12-8-19-14-14-11-12-9 3-3 19-8 16-5 17-8 12-9 8-7 11-14 8-13 9-19 7-14 4-5z" fill="#fff"/>
<path transform="translate(1059,653)" d="m0 0h38l25 2 31 5 4 2-6 7-8 7-15 10-17 10-26 14-24 12-24 11-27-4h-20l-17 3-12 4-13 7-4 4h-58l-31-1 2-4 16-16 11-9 13-10 17-11 16-9 23-11 22-8 22-6 25-5 22-3z" fill="#6AB245"/>
<path transform="translate(1077,455)" d="m0 0h9l16 3 16 7 11 8 12 12 7 12 4 13v19l-4 12-7 9-8 7-13 6-18 6-11 6-10 8-7 3h-6l-6-4-6-10v-2l-17 12-6 7-3 10-3 12-6 13-4-1-14-9-12-7-7-6-4-6 2-5 6-5 14-1 10-4 6-7 5-12 3-12-10-3-6-3 3-10 13-26 3-20 4-11 6-8 10-6 16-5z" fill="#fff"/>
<path transform="translate(1307,1287)" d="m0 0h72l-1 11-5 21-6 17-8 16-11 14-9 7h-55l6-8 10-15 7-14 4-14 1-7v-9l-2-10z" fill="#6AB245"/>
<path transform="translate(838,768)" d="m0 0h30l43 1 13 1v8l-5 16-3 7-24 11-36 14-26 8-9 2h-4l-1-4v-13l2-14 5-15 6-11z" fill="#6AB245"/>
<path transform="translate(1321,1588)" d="m0 0h29l6 11 13 17 16 21 12 16 2 3v-53l-2-11v-4h24l-1 7-2 16v50l2 19v5h-23l-4-8-16-21-9-12-16-21v44l3 18h-25l3-18v-66l-7-8z"/>
<path transform="translate(767,1588)" d="m0 0h26l-3 14-1 27h39l-1-22-3-16v-3h25l-3 24v49l2 17 1 7h-25l2-11 1-8 1-22h-39l1 27 3 14h-26l3-16v-65z" fill="#010200"/>
<path transform="translate(1099,1588)" d="m0 0h25l-3 17v24l10-13 13-17 4-11h30v2l-8 7-11 11-10 13-7 9 2 5 9 11 12 16 11 14 8 8v1h-29l-4-10-10-14-14-18-6-8v33l3 17h-26l3-14v-69l-2-10z" fill="#000100"/>
<path transform="translate(1206,750)" d="m0 0h14l11 4 11 8 7 8 8 14 4 13 1 6v11l-3 12-6 10-4 5-8 6-9 3h-19l-13-4-11-6-3-3h34l10-3 5-4 4-8 2-7 1-13-2-10-6-10-9-6h-3l3 3 1 3v21l-16-6-16-10-1-3 22-9h3v-2l-11-2-23-6v-2l15-10z" fill="#fff"/>
<path transform="translate(1017,1587)" d="m0 0h21l12 3v18l-12-5-4-1h-18l-9 4-8 7-5 9-2 9v11l3 11 6 9 8 6 10 3 14-1 11-4 6-4 3-1-1 18-8 4-13 3h-20l-13-4-9-6-9-9-6-12-2-8v-18l4-13 7-11 10-9 12-6z" fill="#000100"/>
<path transform="translate(685,1587)" d="m0 0h21l12 3v18l-12-5-4-1h-18l-9 4-8 7-5 10-2 9v9l3 12 7 10 9 6 8 2 14-1 12-4 8-5-1 18-8 4-13 3h-20l-13-4-10-7-7-7-5-8-3-9-1-5v-16l3-11 5-10 9-10 10-6 9-4z" fill="#000100"/>
<path transform="translate(1224,1588)" d="m0 0h55l-3 9-4 9-5-1-9-3-12-1-1 28h31l-2 5-7 12-14-3-8-1v30l22-2 14-4h3l-3 10-4 9h-53l3-18v-61z"/>
<path transform="translate(899,1588)" d="m0 0h25l-3 21v55l3 21h-25l3-21v-55l-2-14z" fill="#000100"/>
<path transform="translate(1074,467)" d="m0 0h15l11 4 11 6 8 7v1h-35l-11 4-6 5-7 11-5 13-7 8-11 9h-3l-2-2 1-6 9-17 6-18 6-11 6-7 10-6z" fill="#010201"/>
</svg>
